<?xml version="1.0" encoding="UTF-8" standalone="no"?>
<!-- Created with matplotlib (http://matplotlib.org/) -->

<svg
   xmlns:dc="http://purl.org/dc/elements/1.1/"
   xmlns:cc="http://creativecommons.org/ns#"
   xmlns:rdf="http://www.w3.org/1999/02/22-rdf-syntax-ns#"
   xmlns:svg="http://www.w3.org/2000/svg"
   xmlns="http://www.w3.org/2000/svg"
   xmlns:xlink="http://www.w3.org/1999/xlink"
   xmlns:sodipodi="http://sodipodi.sourceforge.net/DTD/sodipodi-0.dtd"
   xmlns:inkscape="http://www.inkscape.org/namespaces/inkscape"
   height="268.72076"
   version="1.1"
   viewBox="0 0 299.38686 214.97661"
   width="374.23358"
   id="svg18308"
   inkscape:version="0.48.5 r"
   sodipodi:docname="scatter_plot.svg">
  <metadata
     id="metadata33527">
    <rdf:RDF>
      <cc:Work
         rdf:about="">
        <dc:format>image/svg+xml</dc:format>
        <dc:type
           rdf:resource="http://purl.org/dc/dcmitype/StillImage" />
        <dc:title />
      </cc:Work>
    </rdf:RDF>
  </metadata>
  <sodipodi:namedview
     pagecolor="#000000"
     bordercolor="#666666"
     borderopacity="1"
     objecttolerance="10"
     gridtolerance="10"
     guidetolerance="10"
     inkscape:pageopacity="1"
     inkscape:pageshadow="2"
     inkscape:window-width="1280"
     inkscape:window-height="948"
     id="namedview33525"
     showgrid="false"
     inkscape:zoom="1.2873016"
     inkscape:cx="198.55137"
     inkscape:cy="149.72754"
     inkscape:window-x="0"
     inkscape:window-y="280"
     inkscape:window-maximized="1"
     inkscape:current-layer="axes_2"
     fit-margin-top="0"
     fit-margin-left="0"
     fit-margin-right="0"
     fit-margin-bottom="0"
     showguides="true"
     inkscape:guide-bbox="true"
     inkscape:snap-bbox="true"
     inkscape:bbox-nodes="true"
     inkscape:snap-bbox-midpoints="false"
     inkscape:snap-center="true">
    <sodipodi:guide
       orientation="1,0"
       position="-303.11769,219.43887"
       id="guide8317" />
    <sodipodi:guide
       orientation="0,1"
       position="-162.51351,245.3534"
       id="guide8319" />
    <sodipodi:guide
       orientation="0,1"
       position="56.406893,153.39406"
       id="guide26481" />
  </sodipodi:namedview>
  <defs
     id="defs18310"
     style="stroke-linecap:butt;stroke-linejoin:round;stroke-miterlimit:100000">
    <style
       type="text/css"
       id="style18312">
*{stroke-linecap:butt;stroke-linejoin:round;stroke-miterlimit:100000;}
  </style>
    <defs
       id="defs18422">
      <path
         d="m 6.9375,0 0,40.53125 q 0,1.65625 -0.03125,3.390625 Q 6.890625,45.65625 6.828125,47.265625 6.78125,48.875 6.734375,50.28125 6.6875,51.703125 6.640625,52.828125 l 8.296875,0 q 0.04687,-1.125 0.125,-2.5625 0.07813,-1.4375 0.140625,-2.953125 0.07813,-1.515625 0.09375,-2.90625 0.03125,-1.390625 0.03125,-2.359375 l 0.203125,0 Q 16.453125,45.0625 17.5,47.28125 q 1.0625,2.234375 2.46875,3.671875 1.421875,1.4375 3.375,2.140625 1.953125,0.71875 4.734375,0.71875 1.078125,0 2.046875,-0.171875 0.984375,-0.171875 1.515625,-0.3125 l 0,-8.0625 q -0.875,0.25 -2.046875,0.359375 -1.171875,0.125 -2.640625,0.125 -3.03125,0 -5.15625,-1.375 -2.125,-1.359375 -3.46875,-3.78125 Q 17,38.1875 16.359375,34.84375 15.71875,31.5 15.71875,27.546875 L 15.71875,0 z"
         id="LiberationSans-72"
         inkscape:connector-curvature="0"
         style="stroke-linecap:butt;stroke-linejoin:round;stroke-miterlimit:100000" />
      <path
         d="m 26.765625,-20.75 q -4.546875,0 -8.0625,0.9375 -3.515625,0.921875 -6.015625,2.65625 -2.484375,1.71875 -4.046875,4.125 -1.5625,2.390625 -2.25,5.3125 l 8.84375,1.265625 q 0.875,-3.65625 3.875,-5.625 Q 22.125,-14.0625 27,-14.0625 q 2.984375,0 5.421875,0.828125 2.4375,0.828125 4.140625,2.671875 1.71875,1.828125 2.640625,4.765625 0.9375,2.921875 0.9375,7.109375 l 0,8.5 -0.09375,0 Q 39.0625,7.8125 37.625,5.984375 36.1875,4.15625 34.109375,2.734375 32.03125,1.3125 29.296875,0.453125 q -2.734375,-0.84375 -6.25,-0.84375 -5.03125,0 -8.625,1.6875 -3.578125,1.6875 -5.859375,5.046875 -2.265625,3.375 -3.3125,8.375 -1.046875,5.015625 -1.046875,11.59375 0,6.359375 1.046875,11.4375 1.046875,5.078125 3.40625,8.609375 2.375,3.546875 6.15625,5.421875 3.796875,1.875 9.21875,1.875 5.609375,0 9.734375,-2.5625 4.125,-2.5625 6.375,-7.296875 l 0.09375,0 q 0,1.21875 0.0625,2.734375 0.07813,1.515625 0.15625,2.859375 0.07813,1.34375 0.171875,2.3125 0.09375,0.984375 0.203125,1.125 l 8.34375,0 q -0.04687,-0.4375 -0.09375,-1.484375 -0.04687,-1.046875 -0.109375,-2.515625 -0.04687,-1.46875 -0.07813,-3.25 -0.01563,-1.78125 -0.01563,-3.6875 l 0,-40.375 q 0,-11.09375 -5.453125,-16.671875 -5.4375,-5.59375 -16.65625,-5.59375 m 13.375,47.171875 q 0,5.515625 -1.203125,9.4375 -1.1875,3.9375 -3.140625,6.421875 -1.953125,2.5 -4.46875,3.671875 Q 28.8125,47.125 26.171875,47.125 q -3.375,0 -5.796875,-1.171875 -2.40625,-1.171875 -4,-3.6875 Q 14.796875,39.75 14.03125,35.8125 q -0.75,-3.921875 -0.75,-9.390625 0,-5.71875 0.75,-9.609375 0.765625,-3.875 2.328125,-6.265625 1.5625,-2.390625 3.953125,-3.421875 2.390625,-1.015625 5.71875,-1.015625 2.625,0 5.140625,1.109375 2.515625,1.125 4.515625,3.5625 2.015625,2.453125 3.234375,6.3125 1.21875,3.859375 1.21875,9.328125"
         id="LiberationSans-67"
         inkscape:connector-curvature="0"
         style="stroke-linecap:butt;stroke-linejoin:round;stroke-miterlimit:100000" />
      <path
         d="m 20.21875,-0.984375 q -7.96875,0 -11.96875,4.203125 -4,4.203125 -4,11.53125 0,5.21875 1.96875,8.5625 1.984375,3.34375 5.171875,5.25 3.203125,1.90625 7.296875,2.640625 4.109375,0.734375 8.359375,0.828125 l 11.875,0.203125 0,2.875 q 0,3.265625 -0.6875,5.5625 -0.6875,2.296875 -2.109375,3.703125 -1.40625,1.421875 -3.53125,2.078125 -2.125,0.671875 -5,0.671875 -2.546875,0 -4.59375,-0.375 -2.046875,-0.359375 -3.5625,-1.3125 -1.515625,-0.953125 -2.453125,-2.59375 -0.921875,-1.625 -1.21875,-4.125 L 6.59375,39.546875 q 0.484375,3.125 1.84375,5.734375 1.375,2.625 3.890625,4.515625 2.515625,1.90625 6.296875,2.953125 3.78125,1.0625 9.15625,1.0625 9.96875,0 14.984375,-4.578125 5.03125,-4.5625 5.03125,-13.203125 l 0,-22.75 q 0,-3.90625 1.03125,-5.890625 1.03125,-1.96875 3.90625,-1.96875 0.734375,0 1.46875,0.09375 0.734375,0.09375 1.40625,0.25 l 0,-5.46875 Q 53.953125,-0.09375 52.3125,-0.28125 q -1.625,-0.203125 -3.484375,-0.203125 -2.484375,0 -4.265625,0.65625 -1.78125,0.65625 -2.90625,2 -1.125,1.34375 -1.71875,3.3125 -0.578125,1.984375 -0.734375,4.625 l -0.28125,0 Q 37.5,7.5625 35.8125,5.515625 34.125,3.46875 31.875,2.03125 29.640625,0.59375 26.78125,-0.1875 23.921875,-0.984375 20.21875,-0.984375 m 2,6.59375 q 4.203125,0 7.34375,1.53125 3.15625,1.546875 5.21875,3.9375 2.078125,2.40625 3.109375,5.234375 1.03125,2.828125 1.03125,5.421875 l 0,4.34375 -9.625,-0.203125 q -3.21875,-0.04687 -6.125,-0.46875 Q 20.265625,25 18.0625,23.78125 15.875,22.5625 14.578125,20.359375 13.28125,18.171875 13.28125,14.59375 q 0,-4.296875 2.3125,-6.640625 2.328125,-2.34375 6.625,-2.34375"
         id="LiberationSans-61"
         inkscape:connector-curvature="0"
         style="stroke-linecap:butt;stroke-linejoin:round;stroke-miterlimit:100000" />
      <path
         d="m 13.484375,24.5625 q 0,-4.15625 0.84375,-7.65625 0.859375,-3.484375 2.640625,-6 1.78125,-2.5 4.5625,-3.90625 2.78125,-1.390625 6.6875,-1.390625 5.71875,0 9.15625,2.296875 3.453125,2.296875 4.671875,5.8125 L 49.75,11.53125 Q 48.921875,9.328125 47.4375,7.109375 45.953125,4.890625 43.453125,3.09375 40.96875,1.3125 37.234375,0.15625 33.5,-0.984375 28.21875,-0.984375 16.5,-0.984375 10.375,6 4.25,12.984375 4.25,26.765625 q 0,7.421875 1.84375,12.5625 1.859375,5.15625 5.078125,8.375 3.234375,3.21875 7.53125,4.65625 Q 23,53.8125 27.875,53.8125 q 6.640625,0 11.109375,-2.15625 4.46875,-2.140625 7.171875,-5.9375 2.71875,-3.78125 3.859375,-8.90625 1.15625,-5.125 1.15625,-11.078125 l 0,-1.171875 z m 28.609375,6.734375 q -0.734375,8.359375 -4.25,12.1875 -3.515625,3.828125 -10.109375,3.828125 -2.203125,0 -4.625,-0.703125 -2.40625,-0.703125 -4.453125,-2.515625 -2.046875,-1.8125 -3.46875,-4.921875 -1.421875,-3.09375 -1.609375,-7.875 z"
         id="LiberationSans-65"
         inkscape:connector-curvature="0"
         style="stroke-linecap:butt;stroke-linejoin:round;stroke-miterlimit:100000" />
      <path
         d="m 38.421875,32.859375 -15.078125,30.90625 -14.9375,-30.90625 -7.921875,0 17.96875,35.9375 9.921875,0 18.0625,-35.9375 z"
         id="LiberationSans-5e"
         inkscape:connector-curvature="0"
         style="stroke-linecap:butt;stroke-linejoin:round;stroke-miterlimit:100000" />
      <path
         d="M 39.109375,0 24.90625,21.6875 10.59375,0 1.125,0 19.921875,27.15625 2,52.828125 l 9.71875,0 13.1875,-20.546875 13.078125,20.546875 9.8125,0 L 29.890625,27.25 48.921875,0 z"
         id="LiberationSans-78"
         inkscape:connector-curvature="0"
         style="stroke-linecap:butt;stroke-linejoin:round;stroke-miterlimit:100000" />
      <path
         d="m 0,-0.984375 20.0625,73.453125 7.71875,0 -19.875,-73.453125 z"
         id="LiberationSans-2f"
         inkscape:connector-curvature="0"
         style="stroke-linecap:butt;stroke-linejoin:round;stroke-miterlimit:100000" />
      <path
         d="m 6.203125,25.984375 q 0,6.78125 1.015625,12.984375 1.03125,6.203125 3.21875,11.90625 2.203125,5.71875 5.625,11.078125 3.421875,5.375 8.15625,10.515625 l 8.5,0 Q 28.125,67.328125 24.78125,61.9375 q -3.34375,-5.390625 -5.5,-11.140625 -2.140625,-5.734375 -3.1875,-11.9375 -1.046875,-6.1875 -1.046875,-12.984375 0,-6.78125 1.046875,-12.984375 1.046875,-6.203125 3.1875,-11.96875 2.15625,-5.75 5.5,-11.125 3.34375,-5.375 7.9375,-10.5 l -8.5,0 q -4.734375,5.125 -8.15625,10.5 -3.421875,5.375 -5.625,11.078125 Q 8.25,6.59375 7.21875,12.765625 6.203125,18.953125 6.203125,25.78125 z"
         id="LiberationSans-28"
         inkscape:connector-curvature="0"
         style="stroke-linecap:butt;stroke-linejoin:round;stroke-miterlimit:100000" />
      <path
         d="m 27.09375,25.78125 q 0,-6.828125 -1.03125,-13.015625 Q 25.046875,6.59375 22.84375,0.875 q -2.1875,-5.703125 -5.609375,-11.078125 -3.421875,-5.375 -8.15625,-10.5 l -8.484375,0 q 4.578125,5.125 7.921875,10.5 3.34375,5.375 5.484375,11.125 2.15625,5.765625 3.203125,11.96875 1.0625,6.203125 1.0625,12.984375 0,6.796875 -1.0625,12.984375 Q 16.15625,45.0625 14,50.796875 11.859375,56.546875 8.515625,61.9375 5.171875,67.328125 0.59375,72.46875 l 8.484375,0 Q 13.8125,67.328125 17.234375,61.953125 20.65625,56.59375 22.84375,50.875 25.046875,45.171875 26.0625,38.96875 27.09375,32.765625 27.09375,25.984375 z"
         id="LiberationSans-29"
         inkscape:connector-curvature="0"
         style="stroke-linecap:butt;stroke-linejoin:round;stroke-miterlimit:100000" />
      <path
         d="m 51.421875,26.46875 q 0,-13.875 -6.109375,-20.671875 -6.109375,-6.78125 -17.71875,-6.78125 -5.515625,0 -9.875,1.65625 -4.34375,1.671875 -7.34375,5.09375 -3,3.421875 -4.59375,8.5625 -1.578125,5.15625 -1.578125,12.140625 0,27.34375 23.671875,27.34375 6.15625,0 10.625,-1.71875 4.46875,-1.703125 7.328125,-5.125 2.859375,-3.40625 4.21875,-8.546875 1.375,-5.125 1.375,-11.953125 m -9.234375,0 q 0,6.15625 -0.953125,10.15625 -0.953125,4 -2.78125,6.390625 -1.828125,2.390625 -4.46875,3.34375 -2.640625,0.953125 -5.953125,0.953125 -3.375,0 -6.09375,-1 -2.703125,-1 -4.609375,-3.421875 -1.890625,-2.40625 -2.90625,-6.421875 -1,-4 -1,-10 0,-6.15625 1.078125,-10.1875 1.078125,-4.03125 2.953125,-6.421875 1.890625,-2.390625 4.453125,-3.375 2.5625,-0.96875 5.578125,-0.96875 3.375,0 6.109375,0.953125 2.734375,0.953125 4.640625,3.34375 1.90625,2.390625 2.921875,6.4375 1.03125,4.0625 1.03125,10.21875"
         id="LiberationSans-6f"
         inkscape:connector-curvature="0"
         style="stroke-linecap:butt;stroke-linejoin:round;stroke-miterlimit:100000" />
      <path
         d="m 51.421875,26.65625 q 0,-6 -0.984375,-11.078125 -0.96875,-5.078125 -3.25,-8.75 -2.265625,-3.65625 -6,-5.734375 -3.734375,-2.078125 -9.203125,-2.078125 -5.671875,0 -9.921875,2.15625 -4.234375,2.15625 -6.484375,7.03125 l -0.25,0 Q 15.375,8.109375 15.40625,7.328125 15.4375,6.546875 15.453125,5.375 15.484375,4.203125 15.5,2.75 15.53125,1.3125 15.53125,-0.09375 l 0,-20.65625 -8.796875,0 0,62.796875 q 0,1.90625 -0.03125,3.65625 Q 6.6875,47.46875 6.640625,48.90625 6.59375,50.34375 6.546875,51.359375 6.5,52.390625 6.453125,52.828125 l 8.484375,0 q 0.04687,-0.140625 0.125,-1.03125 0.07813,-0.875 0.140625,-2.125 0.07813,-1.234375 0.15625,-2.65625 0.07813,-1.40625 0.07813,-2.671875 l 0.1875,0 q 1.21875,2.53125 2.78125,4.3125 1.5625,1.78125 3.5625,2.921875 2,1.15625 4.46875,1.671875 2.46875,0.515625 5.546875,0.515625 5.46875,0 9.203125,-1.953125 3.734375,-1.953125 6,-5.5 2.28125,-3.53125 3.25,-8.546875 0.984375,-5 0.984375,-11.109375 m -9.23438,-0.1875 q 0,4.875 -0.59375,8.6875 -0.578125,3.8125 -2.015625,6.4375 -1.4375,2.640625 -3.84375,4 -2.390625,1.375 -6,1.375 -2.921875,0 -5.515625,-0.828125 Q 21.625,45.3125 19.703125,42.96875 17.78125,40.625 16.65625,36.5 q -1.125,-4.125 -1.125,-10.71875 0,-5.609375 0.921875,-9.5 0.9375,-3.875 2.71875,-6.265625 1.78125,-2.390625 4.40625,-3.453125 2.640625,-1.046875 6.0625,-1.046875 3.65625,0 6.078125,1.40625 2.421875,1.421875 3.859375,4.109375 1.4375,2.6875 2.015625,6.5625 0.59375,3.890625 0.59375,8.875"
         id="LiberationSans-70"
         inkscape:connector-curvature="0"
         style="stroke-linecap:butt;stroke-linejoin:round;stroke-miterlimit:100000" />
      <path
         d="m 6.734375,0 0,72.46875 8.796875,0 0,-72.46875 z"
         id="LiberationSans-6c"
         inkscape:connector-curvature="0"
         style="stroke-linecap:butt;stroke-linejoin:round;stroke-miterlimit:100000" />
      <path
         d=""
         id="LiberationSans-20"
         inkscape:connector-curvature="0"
         style="stroke-linecap:butt;stroke-linejoin:round;stroke-miterlimit:100000" />
    </defs>
  </defs>
  <defs
     id="defs33511">
    <clipPath
       id="pfd964f8c06">
      <rect
         height="183.27272"
         width="253.63637"
         x="90"
         y="270.32727"
         id="rect33514"
         style="stroke-linecap:butt;stroke-linejoin:round;stroke-miterlimit:100000" />
    </clipPath>
    <clipPath
       id="p20a063f0c7">
      <rect
         height="183.27272"
         width="253.63637"
         x="90"
         y="50.400002"
         id="rect33517"
         style="stroke-linecap:butt;stroke-linejoin:round;stroke-miterlimit:100000" />
    </clipPath>
    <clipPath
       id="p49c652e97d">
      <rect
         height="183.27272"
         width="253.63637"
         x="394.36365"
         y="50.400002"
         id="rect33520"
         style="stroke-linecap:butt;stroke-linejoin:round;stroke-miterlimit:100000" />
    </clipPath>
    <clipPath
       id="pf089e43456">
      <rect
         height="183.27272"
         width="253.63637"
         x="394.36365"
         y="270.32727"
         id="rect33523"
         style="stroke-linecap:butt;stroke-linejoin:round;stroke-miterlimit:100000" />
    </clipPath>
  </defs>
  <g
     inkscape:groupmode="layer"
     id="layer2"
     inkscape:label="Plots"
     style="stroke-linecap:butt;stroke-linejoin:round;stroke-miterlimit:100000;display:inline"
     transform="translate(-309.61129,-0.760587)">
    <g
       style="stroke-linecap:butt;stroke-linejoin:round;stroke-miterlimit:100000;fill:#eeeeec"
       id="axes_1"
       transform="translate(-50.826837,-49.014413)">
      <g
         style="stroke-linecap:butt;stroke-linejoin:round;stroke-miterlimit:100000;fill:#eeeeec"
         id="matplotlib.axis_2" />
    </g>
    <g
       style="stroke-linecap:butt;stroke-linejoin:round;stroke-miterlimit:100000;fill:#eeeeec"
       transform="translate(-39.626837,-49.014413)"
       id="axes_2">
      <g
         style="stroke-linecap:butt;stroke-linejoin:round;stroke-miterlimit:100000;fill:#ffffff"
         id="text_25">
        <!-- −1.0 -->
        <g
           id="g21674"
           transform="matrix(0.1,0,0,-0.1,361.62301,235.66916)"
           style="fill:#ffffff;stroke-linecap:butt;stroke-linejoin:round;stroke-miterlimit:100000">
          <path
             d="m 4.9375,29.6875 0,7.125 48.578125,0 0,-7.125 z"
             id="use21676"
             inkscape:connector-curvature="0"
             style="stroke-linecap:butt;stroke-linejoin:round;stroke-miterlimit:100000;fill:#ffffff" />
          <path
             d="m 66.023437,0 0,7.46875 17.515625,0 0,52.9375 -15.515625,-11.09375 0,8.3125 16.25,11.171875 8.109375,0 0,-61.328125 16.749998,0 0,-7.46875 z"
             id="use21678"
             inkscape:connector-curvature="0"
             style="stroke-linecap:butt;stroke-linejoin:round;stroke-miterlimit:100000;fill:#ffffff" />
          <path
             d="m 123.13867,0 0,10.6875 9.53125,0 0,-10.6875 z"
             id="use21680"
             inkscape:connector-curvature="0"
             style="stroke-linecap:butt;stroke-linejoin:round;stroke-miterlimit:100000;fill:#ffffff" />
          <path
             d="m 193.5,34.421875 q 0,-9.90625 -1.875,-16.671875 -1.875,-6.765625 -5.125,-10.9375 -3.25,-4.171875 -7.64063,-5.984375 -4.39062,-1.8125 -9.375,-1.8125 -5.03125,0 -9.375,1.8125 -4.34375,1.8125 -7.54687,5.953125 -3.20313,4.15625 -5.03125,10.921875 -1.82813,6.765625 -1.82813,16.71875 0,10.40625 1.82813,17.21875 1.82812,6.8125 5.04687,10.859375 3.23438,4.046875 7.625,5.6875 4.39063,1.640625 9.57813,1.640625 4.92187,0 9.23437,-1.640625 4.32813,-1.640625 7.54688,-5.6875 3.23437,-4.046875 5.07812,-10.859375 1.85938,-6.8125 1.85938,-17.21875 m -8.92188,0 q 0,8.203125 -0.98437,13.640625 -0.96875,5.453125 -2.875,8.703125 -1.90625,3.25 -4.67188,4.59375 -2.75,1.34375 -6.26562,1.34375 -3.71875,0 -6.54688,-1.375 -2.82812,-1.359375 -4.76562,-4.609375 -1.92188,-3.25 -2.90625,-8.703125 -0.96875,-5.4375 -0.96875,-13.59375 0,-7.90625 1,-13.328125 1,-5.421875 2.92187,-8.71875 1.9375,-3.296875 4.71875,-4.734375 2.78125,-1.4375 6.34375,-1.4375 3.46875,0 6.25,1.4375 2.78125,1.4375 4.70313,4.734375 1.9375,3.296875 2.98437,8.71875 1.0625,5.421875 1.0625,13.328125"
             id="use21682"
             inkscape:connector-curvature="0"
             style="stroke-linecap:butt;stroke-linejoin:round;stroke-miterlimit:100000;fill:#ffffff" />
        </g>
      </g>
      <g
         style="stroke-linecap:butt;stroke-linejoin:round;stroke-miterlimit:100000;fill:#ffffff"
         id="text_26">
        <!-- −0.5 -->
        <g
           id="g21696"
           transform="matrix(0.1,0,0,-0.1,361.62301,189.8515)"
           style="fill:#ffffff;stroke-linecap:butt;stroke-linejoin:round;stroke-miterlimit:100000">
          <path
             d="m 4.9375,29.6875 0,7.125 48.578125,0 0,-7.125 z"
             id="use21698"
             inkscape:connector-curvature="0"
             style="stroke-linecap:butt;stroke-linejoin:round;stroke-miterlimit:100000;fill:#ffffff" />
          <path
             d="m 110.10156,34.421875 q 0,-9.90625 -1.875,-16.671875 -1.875,-6.765625 -5.125,-10.9375 -3.249998,-4.171875 -7.640623,-5.984375 -4.390625,-1.8125 -9.375,-1.8125 -5.03125,0 -9.375,1.8125 -4.34375,1.8125 -7.546875,5.953125 -3.203125,4.15625 -5.03125,10.921875 -1.828125,6.765625 -1.828125,16.71875 0,10.40625 1.828125,17.21875 1.828125,6.8125 5.046875,10.859375 3.234375,4.046875 7.625,5.6875 4.390625,1.640625 9.578125,1.640625 4.921875,0 9.234375,-1.640625 4.328125,-1.640625 7.546873,-5.6875 3.23438,-4.046875 5.07813,-10.859375 1.85937,-6.8125 1.85937,-17.21875 m -8.92187,0 q 0,8.203125 -0.98438,13.640625 -0.968748,5.453125 -2.874998,8.703125 -1.90625,3.25 -4.671875,4.59375 -2.75,1.34375 -6.265625,1.34375 -3.71875,0 -6.546875,-1.375 -2.828125,-1.359375 -4.765625,-4.609375 -1.921875,-3.25 -2.90625,-8.703125 -0.96875,-5.4375 -0.96875,-13.59375 0,-7.90625 1,-13.328125 1,-5.421875 2.921875,-8.71875 1.9375,-3.296875 4.71875,-4.734375 2.78125,-1.4375 6.34375,-1.4375 3.46875,0 6.25,1.4375 2.78125,1.4375 4.703125,4.734375 1.9375,3.296875 2.984378,8.71875 1.0625,5.421875 1.0625,13.328125"
             id="use21700"
             inkscape:connector-curvature="0"
             style="stroke-linecap:butt;stroke-linejoin:round;stroke-miterlimit:100000;fill:#ffffff" />
          <path
             d="m 123.13867,0 0,10.6875 9.53125,0 0,-10.6875 z"
             id="use21702"
             inkscape:connector-curvature="0"
             style="stroke-linecap:butt;stroke-linejoin:round;stroke-miterlimit:100000;fill:#ffffff" />
          <path
             d="m 193.21875,22.40625 q 0,-5.171875 -1.5625,-9.46875 -1.5625,-4.296875 -4.64063,-7.40625 -3.07812,-3.09375 -7.64062,-4.8125 -4.5625,-1.703125 -10.57813,-1.703125 -5.42187,0 -9.45312,1.265625 -4.01563,1.28125 -6.8125,3.5 Q 149.75,6 148.10937,8.984375 q -1.625,2.984375 -2.3125,6.390625 l 8.89063,1.03125 q 0.53125,-1.953125 1.5,-3.78125 0.98437,-1.828125 2.67187,-3.28125 1.6875,-1.4375 4.15625,-2.296875 2.46875,-0.84375 5.98438,-0.84375 3.40625,0 6.1875,1.046875 2.79687,1.046875 4.76562,3.09375 1.98438,2.0625 3.04688,5.03125 1.07812,2.984375 1.07812,6.84375 0,3.171875 -1.03125,5.828125 -1.01562,2.671875 -2.92187,4.59375 -1.90625,1.9375 -4.67188,3 -2.75,1.078125 -6.26562,1.078125 -2.1875,0 -4.04688,-0.390625 Q 163.28125,35.9375 161.6875,35.25 q -1.57813,-0.671875 -2.875,-1.578125 -1.29688,-0.90625 -2.42188,-1.890625 l -8.59375,0 2.29688,37.015625 39.10937,0 0,-7.46875 -31.09375,0 L 156.78125,39.5 q 2.34375,1.8125 5.85937,3.09375 3.51563,1.296875 8.35938,1.296875 5.125,0 9.21875,-1.5625 4.10937,-1.5625 6.98437,-4.421875 2.89063,-2.84375 4.45313,-6.796875 1.5625,-3.953125 1.5625,-8.703125"
             id="use21704"
             inkscape:connector-curvature="0"
             style="stroke-linecap:butt;stroke-linejoin:round;stroke-miterlimit:100000;fill:#ffffff" />
        </g>
      </g>
      <g
         style="stroke-linecap:butt;stroke-linejoin:round;stroke-miterlimit:100000;fill:#ffffff"
         id="text_27">
        <!-- 0.0 -->
        <g
           id="g21718"
           transform="matrix(0.1,0,0,-0.1,367.46364,144.03384)"
           style="fill:#ffffff;stroke-linecap:butt;stroke-linejoin:round;stroke-miterlimit:100000">
          <path
             d="m 51.703125,34.421875 q 0,-9.90625 -1.875,-16.671875 -1.875,-6.765625 -5.125,-10.9375 -3.25,-4.171875 -7.640625,-5.984375 -4.390625,-1.8125 -9.375,-1.8125 -5.03125,0 -9.375,1.8125 -4.34375,1.8125 -7.546875,5.953125 Q 7.5625,10.9375 5.734375,17.703125 3.90625,24.46875 3.90625,34.421875 q 0,10.40625 1.828125,17.21875 1.828125,6.8125 5.046875,10.859375 3.234375,4.046875 7.625,5.6875 4.390625,1.640625 9.578125,1.640625 4.921875,0 9.234375,-1.640625 Q 41.546875,66.546875 44.765625,62.5 48,58.453125 49.84375,51.640625 q 1.859375,-6.8125 1.859375,-17.21875 m -8.921875,0 q 0,8.203125 -0.984375,13.640625 -0.96875,5.453125 -2.875,8.703125 -1.90625,3.25 -4.671875,4.59375 -2.75,1.34375 -6.265625,1.34375 -3.71875,0 -6.546875,-1.375 -2.828125,-1.359375 -4.765625,-4.609375 -1.921875,-3.25 -2.90625,-8.703125 -0.96875,-5.4375 -0.96875,-13.59375 0,-7.90625 1,-13.328125 1,-5.421875 2.921875,-8.71875 1.9375,-3.296875 4.71875,-4.734375 2.78125,-1.4375 6.34375,-1.4375 3.46875,0 6.25,1.4375 2.78125,1.4375 4.703125,4.734375 1.9375,3.296875 2.984375,8.71875 1.0625,5.421875 1.0625,13.328125"
             id="use21720"
             inkscape:connector-curvature="0"
             style="stroke-linecap:butt;stroke-linejoin:round;stroke-miterlimit:100000;fill:#ffffff" />
          <path
             d="m 64.740234,0 0,10.6875 9.53125,0 0,-10.6875 z"
             id="use21722"
             inkscape:connector-curvature="0"
             style="stroke-linecap:butt;stroke-linejoin:round;stroke-miterlimit:100000;fill:#ffffff" />
          <path
             d="m 135.10156,34.421875 q 0,-9.90625 -1.875,-16.671875 -1.875,-6.765625 -5.125,-10.9375 -3.25,-4.171875 -7.64062,-5.984375 -4.39063,-1.8125 -9.375,-1.8125 -5.03125,0 -9.375,1.8125 -4.343753,1.8125 -7.546878,5.953125 -3.203125,4.15625 -5.03125,10.921875 -1.828125,6.765625 -1.828125,16.71875 0,10.40625 1.828125,17.21875 1.828125,6.8125 5.046875,10.859375 3.234375,4.046875 7.625003,5.6875 4.39062,1.640625 9.57812,1.640625 4.92188,0 9.23438,-1.640625 4.32812,-1.640625 7.54687,-5.6875 3.23438,-4.046875 5.07813,-10.859375 1.85937,-6.8125 1.85937,-17.21875 m -8.92187,0 q 0,8.203125 -0.98438,13.640625 -0.96875,5.453125 -2.875,8.703125 -1.90625,3.25 -4.67187,4.59375 -2.75,1.34375 -6.26563,1.34375 -3.71875,0 -6.54687,-1.375 -2.82813,-1.359375 -4.76563,-4.609375 -1.921873,-3.25 -2.906248,-8.703125 -0.96875,-5.4375 -0.96875,-13.59375 0,-7.90625 1,-13.328125 1,-5.421875 2.921878,-8.71875 1.9375,-3.296875 4.71875,-4.734375 2.78125,-1.4375 6.34375,-1.4375 3.46875,0 6.25,1.4375 2.78125,1.4375 4.70312,4.734375 1.9375,3.296875 2.98438,8.71875 1.0625,5.421875 1.0625,13.328125"
             id="use21724"
             inkscape:connector-curvature="0"
             style="stroke-linecap:butt;stroke-linejoin:round;stroke-miterlimit:100000;fill:#ffffff" />
        </g>
      </g>
      <g
         style="stroke-linecap:butt;stroke-linejoin:round;stroke-miterlimit:100000;fill:none;stroke:#ffffff"
         id="g36629">
        <g
           id="line2d_35"
           style="stroke-linecap:butt;stroke-linejoin:round;stroke-miterlimit:100000;fill:none;stroke:#ffffff"
           transform="translate(6.4,0)">
          <g
             id="g21664"
             style="stroke-linecap:butt;stroke-linejoin:round;stroke-miterlimit:100000;fill:none;stroke:#ffffff">
            <path
               d="m 394.36365,233.08322 -6,0"
               id="use21666"
               style="fill:none;stroke:#ffffff;stroke-width:1;stroke-linecap:butt;stroke-linejoin:round;stroke-miterlimit:100000"
               inkscape:connector-curvature="0" />
          </g>
        </g>
        <g
           id="line2d_36"
           style="stroke-linecap:butt;stroke-linejoin:round;stroke-miterlimit:100000;fill:none;stroke:#ffffff"
           transform="translate(-6.4,0)">
          <g
             id="g21669"
             style="stroke-linecap:butt;stroke-linejoin:round;stroke-miterlimit:100000;fill:none;stroke:#ffffff">
            <path
               d="m 648,233.08322 6,0"
               id="use21671"
               style="fill:none;stroke:#ffffff;stroke-width:1;stroke-linecap:butt;stroke-linejoin:round;stroke-miterlimit:100000"
               inkscape:connector-curvature="0" />
          </g>
        </g>
        <g
           id="line2d_37"
           style="stroke-linecap:butt;stroke-linejoin:round;stroke-miterlimit:100000;fill:none;stroke:#ffffff"
           transform="translate(6.4,0)">
          <g
             id="g21686"
             style="stroke-linecap:butt;stroke-linejoin:round;stroke-miterlimit:100000;fill:none;stroke:#ffffff">
            <path
               d="m 394.36365,187.26556 -6,0"
               id="use21688"
               style="fill:none;stroke:#ffffff;stroke-width:1;stroke-linecap:butt;stroke-linejoin:round;stroke-miterlimit:100000"
               inkscape:connector-curvature="0" />
          </g>
        </g>
        <g
           id="line2d_38"
           style="stroke-linecap:butt;stroke-linejoin:round;stroke-miterlimit:100000;fill:none;stroke:#ffffff"
           transform="translate(-6.4,0)">
          <g
             id="g21691"
             style="stroke-linecap:butt;stroke-linejoin:round;stroke-miterlimit:100000;fill:none;stroke:#ffffff">
            <path
               d="m 648,187.26556 6,0"
               id="use21693"
               style="fill:none;stroke:#ffffff;stroke-width:1;stroke-linecap:butt;stroke-linejoin:round;stroke-miterlimit:100000"
               inkscape:connector-curvature="0" />
          </g>
        </g>
        <g
           id="line2d_39"
           style="stroke-linecap:butt;stroke-linejoin:round;stroke-miterlimit:100000;fill:none;stroke:#ffffff"
           transform="translate(6.4,0)">
          <g
             id="g21708"
             style="stroke-linecap:butt;stroke-linejoin:round;stroke-miterlimit:100000;fill:none;stroke:#ffffff">
            <path
               d="m 394.36365,141.44791 -6,0"
               id="use21710"
               style="fill:none;stroke:#ffffff;stroke-width:1;stroke-linecap:butt;stroke-linejoin:round;stroke-miterlimit:100000"
               inkscape:connector-curvature="0" />
          </g>
        </g>
        <g
           id="line2d_40"
           style="stroke-linecap:butt;stroke-linejoin:round;stroke-miterlimit:100000;fill:none;stroke:#ffffff"
           transform="translate(-6.4,0)">
          <g
             id="g21713"
             style="stroke-linecap:butt;stroke-linejoin:round;stroke-miterlimit:100000;fill:none;stroke:#ffffff">
            <path
               d="m 648,141.44791 6,0"
               id="use21715"
               style="fill:none;stroke:#ffffff;stroke-width:1;stroke-linecap:butt;stroke-linejoin:round;stroke-miterlimit:100000"
               inkscape:connector-curvature="0" />
          </g>
        </g>
        <g
           id="line2d_41"
           style="stroke-linecap:butt;stroke-linejoin:round;stroke-miterlimit:100000;fill:none;stroke:#ffffff"
           transform="translate(6.4,0)">
          <g
             id="g21728"
             style="stroke-linecap:butt;stroke-linejoin:round;stroke-miterlimit:100000;fill:none;stroke:#ffffff">
            <path
               d="m 394.36365,95.630249 -6,0"
               id="use21730"
               style="fill:none;stroke:#ffffff;stroke-width:1;stroke-linecap:butt;stroke-linejoin:round;stroke-miterlimit:100000"
               inkscape:connector-curvature="0" />
          </g>
        </g>
        <g
           id="line2d_42"
           style="stroke-linecap:butt;stroke-linejoin:round;stroke-miterlimit:100000;fill:none;stroke:#ffffff"
           transform="translate(-6.4,0)">
          <g
             id="g21733"
             style="stroke-linecap:butt;stroke-linejoin:round;stroke-miterlimit:100000;fill:none;stroke:#ffffff">
            <path
               d="m 648,95.630249 6,0"
               id="use21735"
               style="fill:none;stroke:#ffffff;stroke-width:1;stroke-linecap:butt;stroke-linejoin:round;stroke-miterlimit:100000"
               inkscape:connector-curvature="0" />
          </g>
        </g>
      </g>
      <g
         style="stroke-linecap:butt;stroke-linejoin:round;stroke-miterlimit:100000;fill:#ffffff"
         id="text_28">
        <!-- 0.5 -->
        <g
           id="g21738"
           transform="matrix(0.1,0,0,-0.1,367.46364,98.216184)"
           style="fill:#ffffff;stroke-linecap:butt;stroke-linejoin:round;stroke-miterlimit:100000">
          <path
             d="m 51.703125,34.421875 q 0,-9.90625 -1.875,-16.671875 -1.875,-6.765625 -5.125,-10.9375 -3.25,-4.171875 -7.640625,-5.984375 -4.390625,-1.8125 -9.375,-1.8125 -5.03125,0 -9.375,1.8125 -4.34375,1.8125 -7.546875,5.953125 Q 7.5625,10.9375 5.734375,17.703125 3.90625,24.46875 3.90625,34.421875 q 0,10.40625 1.828125,17.21875 1.828125,6.8125 5.046875,10.859375 3.234375,4.046875 7.625,5.6875 4.390625,1.640625 9.578125,1.640625 4.921875,0 9.234375,-1.640625 Q 41.546875,66.546875 44.765625,62.5 48,58.453125 49.84375,51.640625 q 1.859375,-6.8125 1.859375,-17.21875 m -8.921875,0 q 0,8.203125 -0.984375,13.640625 -0.96875,5.453125 -2.875,8.703125 -1.90625,3.25 -4.671875,4.59375 -2.75,1.34375 -6.265625,1.34375 -3.71875,0 -6.546875,-1.375 -2.828125,-1.359375 -4.765625,-4.609375 -1.921875,-3.25 -2.90625,-8.703125 -0.96875,-5.4375 -0.96875,-13.59375 0,-7.90625 1,-13.328125 1,-5.421875 2.921875,-8.71875 1.9375,-3.296875 4.71875,-4.734375 2.78125,-1.4375 6.34375,-1.4375 3.46875,0 6.25,1.4375 2.78125,1.4375 4.703125,4.734375 1.9375,3.296875 2.984375,8.71875 1.0625,5.421875 1.0625,13.328125"
             id="use21740"
             inkscape:connector-curvature="0"
             style="stroke-linecap:butt;stroke-linejoin:round;stroke-miterlimit:100000;fill:#ffffff" />
          <path
             d="m 64.740234,0 0,10.6875 9.53125,0 0,-10.6875 z"
             id="use21742"
             inkscape:connector-curvature="0"
             style="stroke-linecap:butt;stroke-linejoin:round;stroke-miterlimit:100000;fill:#ffffff" />
          <path
             d="m 134.82031,22.40625 q 0,-5.171875 -1.5625,-9.46875 -1.5625,-4.296875 -4.64062,-7.40625 -3.07813,-3.09375 -7.64063,-4.8125 -4.5625,-1.703125 -10.57812,-1.703125 -5.42188,0 -9.45313,1.265625 -4.015623,1.28125 -6.812498,3.5 Q 91.351562,6 89.710937,8.984375 q -1.625,2.984375 -2.3125,6.390625 l 8.890625,1.03125 q 0.53125,-1.953125 1.5,-3.78125 0.984375,-1.828125 2.671878,-3.28125 1.6875,-1.4375 4.15625,-2.296875 2.46875,-0.84375 5.98437,-0.84375 3.40625,0 6.1875,1.046875 2.79688,1.046875 4.76563,3.09375 1.98437,2.0625 3.04687,5.03125 1.07813,2.984375 1.07813,6.84375 0,3.171875 -1.03125,5.828125 -1.01563,2.671875 -2.92188,4.59375 -1.90625,1.9375 -4.67187,3 -2.75,1.078125 -6.26563,1.078125 -2.1875,0 -4.04687,-0.390625 -1.85938,-0.390625 -3.45313,-1.078125 -1.57812,-0.671875 -2.875,-1.578125 -1.296873,-0.90625 -2.421873,-1.890625 l -8.59375,0 2.296875,37.015625 39.109378,0 0,-7.46875 -31.093753,0 L 98.382812,39.5 q 2.343748,1.8125 5.859378,3.09375 3.51562,1.296875 8.35937,1.296875 5.125,0 9.21875,-1.5625 4.10938,-1.5625 6.98438,-4.421875 2.89062,-2.84375 4.45312,-6.796875 1.5625,-3.953125 1.5625,-8.703125"
             id="use21744"
             inkscape:connector-curvature="0"
             style="stroke-linecap:butt;stroke-linejoin:round;stroke-miterlimit:100000;fill:#ffffff" />
        </g>
      </g>
      <g
         style="stroke-linecap:butt;stroke-linejoin:round;stroke-miterlimit:100000;fill:none;stroke:#ffffff"
         id="patch_8">
        <path
           inkscape:connector-curvature="0"
           id="path27320"
           style="fill:none;stroke:#ffffff;stroke-width:1.25000000000000000;stroke-linecap:square;stroke-linejoin:miter;stroke-miterlimit:100000"
           d="M 394.36364,50.4 648,50.4" />
      </g>
      <g
         style="stroke-linecap:butt;stroke-linejoin:round;stroke-miterlimit:100000;fill:none;stroke:#ffffff"
         id="patch_9">
        <path
           inkscape:connector-curvature="0"
           id="path27323"
           style="fill:none;stroke:#ffffff;stroke-width:1.25000000000000000;stroke-linecap:square;stroke-linejoin:miter;stroke-miterlimit:100000"
           d="M 648,233.67273 648,50.4" />
      </g>
      <g
         style="stroke-linecap:butt;stroke-linejoin:round;stroke-miterlimit:100000;fill:none;stroke:#ffffff"
         id="patch_10">
        <path
           inkscape:connector-curvature="0"
           id="path27326"
           style="fill:none;stroke:#ffffff;stroke-width:1.25000000000000000;stroke-linecap:square;stroke-linejoin:miter;stroke-miterlimit:100000"
           d="m 394.36364,233.67273 253.63636,0" />
      </g>
      <g
         style="stroke-linecap:butt;stroke-linejoin:round;stroke-miterlimit:100000;fill:none;stroke:#ffffff"
         id="patch_11">
        <path
           inkscape:connector-curvature="0"
           id="path27329"
           style="fill:none;stroke:#ffffff;stroke-width:1.25000000000000000;stroke-linecap:square;stroke-linejoin:miter;stroke-miterlimit:100000"
           d="m 394.36364,233.67273 0,-183.27273" />
      </g>
      <g
         transform="translate(301.08104,-6.4970521)"
         id="use41513"
         style="stroke-linecap:butt;stroke-linejoin:round;stroke-miterlimit:100000;fill:#ffffff">
        <!-- 1.5 -->
        <defs
           id="defs10520">
          <path
             d="m 51.421875,22.40625 q 0,-5.171875 -1.5625,-9.46875 Q 48.296875,8.640625 45.21875,5.53125 42.140625,2.4375 37.578125,0.71875 33.015625,-0.984375 27,-0.984375 q -5.421875,0 -9.453125,1.265625 -4.015625,1.28125 -6.8125,3.5 Q 7.953125,6 6.3125,8.984375 4.6875,11.96875 4,15.375 l 8.890625,1.03125 q 0.53125,-1.953125 1.5,-3.78125 Q 15.375,10.796875 17.0625,9.34375 18.75,7.90625 21.21875,7.046875 q 2.46875,-0.84375 5.984375,-0.84375 3.40625,0 6.1875,1.046875 2.796875,1.046875 4.765625,3.09375 1.984375,2.0625 3.046875,5.03125 1.078125,2.984375 1.078125,6.84375 0,3.171875 -1.03125,5.828125 -1.015625,2.671875 -2.921875,4.59375 -1.90625,1.9375 -4.671875,3 -2.75,1.078125 -6.265625,1.078125 -2.1875,0 -4.046875,-0.390625 Q 21.484375,35.9375 19.890625,35.25 18.3125,34.578125 17.015625,33.671875 15.71875,32.765625 14.59375,31.78125 l -8.59375,0 2.296875,37.015625 39.109375,0 0,-7.46875 -31.09375,0 L 14.984375,39.5 q 2.34375,1.8125 5.859375,3.09375 3.515625,1.296875 8.359375,1.296875 5.125,0 9.21875,-1.5625 4.109375,-1.5625 6.984375,-4.421875 2.890625,-2.84375 4.453125,-6.796875 1.5625,-3.953125 1.5625,-8.703125"
             id="path10522"
             inkscape:connector-curvature="0"
             style="stroke-linecap:butt;stroke-linejoin:round;stroke-miterlimit:100000" />
          <path
             d="m 9.125,0 0,10.6875 9.53125,0 0,-10.6875 z"
             id="path10524"
             inkscape:connector-curvature="0"
             style="stroke-linecap:butt;stroke-linejoin:round;stroke-miterlimit:100000" />
          <path
             d="m 7.625,0 0,7.46875 17.515625,0 0,52.9375 L 9.625,49.3125 l 0,8.3125 16.25,11.171875 8.109375,0 0,-61.328125 16.75,0 0,-7.46875 z"
             id="path10526"
             inkscape:connector-curvature="0"
             style="stroke-linecap:butt;stroke-linejoin:round;stroke-miterlimit:100000" />
        </defs>
        <g
           style="fill:#ffffff;stroke-linecap:butt;stroke-linejoin:round;stroke-miterlimit:100000"
           transform="matrix(0.1,0,0,-0.1,128.10156,253.9196)"
           id="g10528">
          <path
             d="m 7.625,0 0,7.46875 17.515625,0 0,52.9375 L 9.625,49.3125 l 0,8.3125 16.25,11.171875 8.109375,0 0,-61.328125 16.75,0 0,-7.46875 z"
             id="use10530"
             inkscape:connector-curvature="0"
             style="stroke-linecap:butt;stroke-linejoin:round;stroke-miterlimit:100000;fill:#ffffff" />
          <path
             d="m 64.740234,0 0,10.6875 9.53125,0 0,-10.6875 z"
             id="use10532"
             inkscape:connector-curvature="0"
             style="stroke-linecap:butt;stroke-linejoin:round;stroke-miterlimit:100000;fill:#ffffff" />
          <path
             d="m 134.82031,22.40625 q 0,-5.171875 -1.5625,-9.46875 -1.5625,-4.296875 -4.64062,-7.40625 -3.07813,-3.09375 -7.64063,-4.8125 -4.5625,-1.703125 -10.57812,-1.703125 -5.42188,0 -9.45313,1.265625 -4.015623,1.28125 -6.812498,3.5 Q 91.351562,6 89.710937,8.984375 q -1.625,2.984375 -2.3125,6.390625 l 8.890625,1.03125 q 0.53125,-1.953125 1.5,-3.78125 0.984375,-1.828125 2.671878,-3.28125 1.6875,-1.4375 4.15625,-2.296875 2.46875,-0.84375 5.98437,-0.84375 3.40625,0 6.1875,1.046875 2.79688,1.046875 4.76563,3.09375 1.98437,2.0625 3.04687,5.03125 1.07813,2.984375 1.07813,6.84375 0,3.171875 -1.03125,5.828125 -1.01563,2.671875 -2.92188,4.59375 -1.90625,1.9375 -4.67187,3 -2.75,1.078125 -6.26563,1.078125 -2.1875,0 -4.04687,-0.390625 -1.85938,-0.390625 -3.45313,-1.078125 -1.57812,-0.671875 -2.875,-1.578125 -1.296873,-0.90625 -2.421873,-1.890625 l -8.59375,0 2.296875,37.015625 39.109378,0 0,-7.46875 -31.093753,0 L 98.382812,39.5 q 2.343748,1.8125 5.859378,3.09375 3.51562,1.296875 8.35937,1.296875 5.125,0 9.21875,-1.5625 4.10938,-1.5625 6.98438,-4.421875 2.89062,-2.84375 4.45312,-6.796875 1.5625,-3.953125 1.5625,-8.703125"
             id="use10534"
             inkscape:connector-curvature="0"
             style="stroke-linecap:butt;stroke-linejoin:round;stroke-miterlimit:100000;fill:#ffffff" />
        </g>
      </g>
      <g
         transform="translate(301.08104,-6.4970521)"
         id="use41515"
         style="stroke-linecap:butt;stroke-linejoin:round;stroke-miterlimit:100000;fill:#ffffff">
        <!-- 2.0 -->
        <defs
           id="defs10478">
          <path
             d="m 5.03125,0 0,6.203125 q 2.484375,5.71875 6.078125,10.078125 3.59375,4.375 7.546875,7.90625 3.953125,3.546875 7.828125,6.578125 Q 30.375,33.796875 33.5,36.8125 q 3.125,3.03125 5.046875,6.34375 1.9375,3.328125 1.9375,7.53125 0,2.921875 -0.890625,5.140625 -0.875,2.234375 -2.53125,3.734375 -1.65625,1.515625 -3.984375,2.265625 -2.3125,0.765625 -5.140625,0.765625 -2.640625,0 -4.96875,-0.734375 -2.3125,-0.71875 -4.125,-2.1875 Q 17.046875,58.203125 15.890625,56.03125 14.75,53.859375 14.40625,50.984375 L 5.421875,51.8125 q 0.4375,3.703125 2.046875,6.96875 1.609375,3.28125 4.4375,5.75 2.84375,2.46875 6.8125,3.875 3.984375,1.421875 9.21875,1.421875 5.125,0 9.125,-1.21875 4,-1.21875 6.75,-3.625 2.765625,-2.390625 4.234375,-5.90625 1.46875,-3.515625 1.46875,-8.09375 0,-3.46875 -1.25,-6.59375 -1.25,-3.125 -3.328125,-5.96875 -2.0625,-2.828125 -4.796875,-5.46875 -2.734375,-2.625 -5.71875,-5.140625 -2.96875,-2.515625 -6,-4.984375 -3.03125,-2.46875 -5.703125,-4.96875 Q 20.0625,15.375 17.96875,12.8125 15.875,10.25 14.703125,7.46875 l 35.890625,0 0,-7.46875 z"
             id="path10480"
             inkscape:connector-curvature="0"
             style="stroke-linecap:butt;stroke-linejoin:round;stroke-miterlimit:100000" />
          <path
             d="m 51.703125,34.421875 q 0,-9.90625 -1.875,-16.671875 -1.875,-6.765625 -5.125,-10.9375 -3.25,-4.171875 -7.640625,-5.984375 -4.390625,-1.8125 -9.375,-1.8125 -5.03125,0 -9.375,1.8125 -4.34375,1.8125 -7.546875,5.953125 Q 7.5625,10.9375 5.734375,17.703125 3.90625,24.46875 3.90625,34.421875 q 0,10.40625 1.828125,17.21875 1.828125,6.8125 5.046875,10.859375 3.234375,4.046875 7.625,5.6875 4.390625,1.640625 9.578125,1.640625 4.921875,0 9.234375,-1.640625 Q 41.546875,66.546875 44.765625,62.5 48,58.453125 49.84375,51.640625 q 1.859375,-6.8125 1.859375,-17.21875 m -8.921875,0 q 0,8.203125 -0.984375,13.640625 -0.96875,5.453125 -2.875,8.703125 -1.90625,3.25 -4.671875,4.59375 -2.75,1.34375 -6.265625,1.34375 -3.71875,0 -6.546875,-1.375 -2.828125,-1.359375 -4.765625,-4.609375 -1.921875,-3.25 -2.90625,-8.703125 -0.96875,-5.4375 -0.96875,-13.59375 0,-7.90625 1,-13.328125 1,-5.421875 2.921875,-8.71875 1.9375,-3.296875 4.71875,-4.734375 2.78125,-1.4375 6.34375,-1.4375 3.46875,0 6.25,1.4375 2.78125,1.4375 4.703125,4.734375 1.9375,3.296875 2.984375,8.71875 1.0625,5.421875 1.0625,13.328125"
             id="path10482"
             inkscape:connector-curvature="0"
             style="stroke-linecap:butt;stroke-linejoin:round;stroke-miterlimit:100000" />
        </defs>
        <g
           style="fill:#ffffff;stroke-linecap:butt;stroke-linejoin:round;stroke-miterlimit:100000"
           transform="matrix(0.1,0,0,-0.1,182.76843,253.9196)"
           id="g10484">
          <path
             d="m 5.03125,0 0,6.203125 q 2.484375,5.71875 6.078125,10.078125 3.59375,4.375 7.546875,7.90625 3.953125,3.546875 7.828125,6.578125 Q 30.375,33.796875 33.5,36.8125 q 3.125,3.03125 5.046875,6.34375 1.9375,3.328125 1.9375,7.53125 0,2.921875 -0.890625,5.140625 -0.875,2.234375 -2.53125,3.734375 -1.65625,1.515625 -3.984375,2.265625 -2.3125,0.765625 -5.140625,0.765625 -2.640625,0 -4.96875,-0.734375 -2.3125,-0.71875 -4.125,-2.1875 Q 17.046875,58.203125 15.890625,56.03125 14.75,53.859375 14.40625,50.984375 L 5.421875,51.8125 q 0.4375,3.703125 2.046875,6.96875 1.609375,3.28125 4.4375,5.75 2.84375,2.46875 6.8125,3.875 3.984375,1.421875 9.21875,1.421875 5.125,0 9.125,-1.21875 4,-1.21875 6.75,-3.625 2.765625,-2.390625 4.234375,-5.90625 1.46875,-3.515625 1.46875,-8.09375 0,-3.46875 -1.25,-6.59375 -1.25,-3.125 -3.328125,-5.96875 -2.0625,-2.828125 -4.796875,-5.46875 -2.734375,-2.625 -5.71875,-5.140625 -2.96875,-2.515625 -6,-4.984375 -3.03125,-2.46875 -5.703125,-4.96875 Q 20.0625,15.375 17.96875,12.8125 15.875,10.25 14.703125,7.46875 l 35.890625,0 0,-7.46875 z"
             id="use10486"
             inkscape:connector-curvature="0"
             style="stroke-linecap:butt;stroke-linejoin:round;stroke-miterlimit:100000;fill:#ffffff" />
          <path
             d="m 64.740234,0 0,10.6875 9.53125,0 0,-10.6875 z"
             id="use10488"
             inkscape:connector-curvature="0"
             style="stroke-linecap:butt;stroke-linejoin:round;stroke-miterlimit:100000;fill:#ffffff" />
          <path
             d="m 135.10156,34.421875 q 0,-9.90625 -1.875,-16.671875 -1.875,-6.765625 -5.125,-10.9375 -3.25,-4.171875 -7.64062,-5.984375 -4.39063,-1.8125 -9.375,-1.8125 -5.03125,0 -9.375,1.8125 -4.343753,1.8125 -7.546878,5.953125 -3.203125,4.15625 -5.03125,10.921875 -1.828125,6.765625 -1.828125,16.71875 0,10.40625 1.828125,17.21875 1.828125,6.8125 5.046875,10.859375 3.234375,4.046875 7.625003,5.6875 4.39062,1.640625 9.57812,1.640625 4.92188,0 9.23438,-1.640625 4.32812,-1.640625 7.54687,-5.6875 3.23438,-4.046875 5.07813,-10.859375 1.85937,-6.8125 1.85937,-17.21875 m -8.92187,0 q 0,8.203125 -0.98438,13.640625 -0.96875,5.453125 -2.875,8.703125 -1.90625,3.25 -4.67187,4.59375 -2.75,1.34375 -6.26563,1.34375 -3.71875,0 -6.54687,-1.375 -2.82813,-1.359375 -4.76563,-4.609375 -1.921873,-3.25 -2.906248,-8.703125 -0.96875,-5.4375 -0.96875,-13.59375 0,-7.90625 1,-13.328125 1,-5.421875 2.921878,-8.71875 1.9375,-3.296875 4.71875,-4.734375 2.78125,-1.4375 6.34375,-1.4375 3.46875,0 6.25,1.4375 2.78125,1.4375 4.70312,4.734375 1.9375,3.296875 2.98438,8.71875 1.0625,5.421875 1.0625,13.328125"
             id="use10490"
             inkscape:connector-curvature="0"
             style="stroke-linecap:butt;stroke-linejoin:round;stroke-miterlimit:100000;fill:#ffffff" />
        </g>
      </g>
      <g
         style="stroke-linecap:butt;stroke-linejoin:round;stroke-miterlimit:100000;fill:none;stroke:#ffffff"
         id="use41519"
         transform="translate(301.08104,-0.0970521)">
        <g
           style="stroke-linecap:butt;stroke-linejoin:round;stroke-miterlimit:100000;fill:none;stroke:#ffffff"
           id="g10378"
           transform="translate(0,-6.4)">
          <defs
             id="defs10380">
            <path
               inkscape:connector-curvature="0"
               style="stroke:#262626;stroke-linecap:butt;stroke-linejoin:round;stroke-miterlimit:100000"
               id="path10382"
               d="M 0,0 0,6" />
          </defs>
          <g
             style="stroke-linecap:butt;stroke-linejoin:round;stroke-miterlimit:100000;fill:none;stroke:#ffffff"
             id="g10384">
            <path
               inkscape:connector-curvature="0"
               style="fill:none;stroke:#ffffff;stroke-width:1;stroke-linecap:butt;stroke-linejoin:round;stroke-miterlimit:100000"
               id="use10386"
               d="m 135.05156,233.67273 0,6" />
          </g>
        </g>
        <g
           style="stroke-linecap:butt;stroke-linejoin:round;stroke-miterlimit:100000;fill:none;stroke:#ffffff"
           id="g10388"
           transform="translate(0,6.4)">
          <defs
             id="defs10390">
            <path
               inkscape:connector-curvature="0"
               style="stroke:#262626;stroke-linecap:butt;stroke-linejoin:round;stroke-miterlimit:100000"
               id="path10392"
               d="M 0,0 0,-6" />
          </defs>
          <g
             style="stroke-linecap:butt;stroke-linejoin:round;stroke-miterlimit:100000;fill:none;stroke:#ffffff"
             id="g10394">
            <path
               inkscape:connector-curvature="0"
               style="fill:none;stroke:#ffffff;stroke-width:1;stroke-linecap:butt;stroke-linejoin:round;stroke-miterlimit:100000"
               id="use10396"
               d="m 135.05156,50.400002 0,-6" />
          </g>
        </g>
        <g
           style="stroke-linecap:butt;stroke-linejoin:round;stroke-miterlimit:100000;fill:none;stroke:#ffffff"
           id="g10398"
           transform="translate(0,-6.4)">
          <g
             style="stroke-linecap:butt;stroke-linejoin:round;stroke-miterlimit:100000;fill:none;stroke:#ffffff"
             id="g10400">
            <path
               inkscape:connector-curvature="0"
               style="fill:none;stroke:#ffffff;stroke-width:1;stroke-linecap:butt;stroke-linejoin:round;stroke-miterlimit:100000"
               id="use10402"
               d="m 189.71843,233.67273 0,6" />
          </g>
        </g>
        <g
           style="stroke-linecap:butt;stroke-linejoin:round;stroke-miterlimit:100000;fill:none;stroke:#ffffff"
           id="g10404"
           transform="translate(0,6.4)">
          <g
             style="stroke-linecap:butt;stroke-linejoin:round;stroke-miterlimit:100000;fill:none;stroke:#ffffff"
             id="g10406">
            <path
               inkscape:connector-curvature="0"
               style="fill:none;stroke:#ffffff;stroke-width:1;stroke-linecap:butt;stroke-linejoin:round;stroke-miterlimit:100000"
               id="use10408"
               d="m 189.71843,50.400002 0,-6" />
          </g>
        </g>
        <g
           style="stroke-linecap:butt;stroke-linejoin:round;stroke-miterlimit:100000;fill:none;stroke:#ffffff"
           id="g10410"
           transform="translate(0,-6.4)">
          <g
             style="stroke-linecap:butt;stroke-linejoin:round;stroke-miterlimit:100000;fill:none;stroke:#ffffff"
             id="g10412">
            <path
               inkscape:connector-curvature="0"
               style="fill:none;stroke:#ffffff;stroke-width:1;stroke-linecap:butt;stroke-linejoin:round;stroke-miterlimit:100000"
               id="use10414"
               d="m 244.3853,233.67273 0,6" />
          </g>
        </g>
        <g
           style="stroke-linecap:butt;stroke-linejoin:round;stroke-miterlimit:100000;fill:none;stroke:#ffffff"
           id="g10416"
           transform="translate(0,6.4)">
          <g
             style="stroke-linecap:butt;stroke-linejoin:round;stroke-miterlimit:100000;fill:none;stroke:#ffffff"
             id="g10418">
            <path
               inkscape:connector-curvature="0"
               style="fill:none;stroke:#ffffff;stroke-width:1;stroke-linecap:butt;stroke-linejoin:round;stroke-miterlimit:100000"
               id="use10420"
               d="m 244.3853,50.400002 0,-6" />
          </g>
        </g>
        <g
           style="stroke-linecap:butt;stroke-linejoin:round;stroke-miterlimit:100000;fill:none;stroke:#ffffff"
           id="g10422"
           transform="translate(0,-6.4)">
          <g
             style="stroke-linecap:butt;stroke-linejoin:round;stroke-miterlimit:100000;fill:none;stroke:#ffffff"
             id="g10424">
            <path
               inkscape:connector-curvature="0"
               style="fill:none;stroke:#ffffff;stroke-width:1;stroke-linecap:butt;stroke-linejoin:round;stroke-miterlimit:100000"
               id="use10426"
               d="m 299.05215,233.67273 0,6" />
          </g>
        </g>
        <g
           style="stroke-linecap:butt;stroke-linejoin:round;stroke-miterlimit:100000;fill:none;stroke:#ffffff"
           id="g10428"
           transform="translate(0,6.4)">
          <g
             style="stroke-linecap:butt;stroke-linejoin:round;stroke-miterlimit:100000;fill:none;stroke:#ffffff"
             id="g10430">
            <path
               inkscape:connector-curvature="0"
               style="fill:none;stroke:#ffffff;stroke-width:1;stroke-linecap:butt;stroke-linejoin:round;stroke-miterlimit:100000"
               id="use10432"
               d="m 299.05215,50.400002 0,-6" />
          </g>
        </g>
      </g>
      <g
         transform="translate(301.08104,-6.4970521)"
         id="use41517"
         style="stroke:none;fill:#ffffff">
        <!-- 2.5 -->
        <g
           style="fill:#ffffff"
           transform="matrix(0.1,0,0,-0.1,237.43529,253.9196)"
           id="g10468">
          <path
             d="m 5.03125,0 0,6.203125 q 2.484375,5.71875 6.078125,10.078125 3.59375,4.375 7.546875,7.90625 3.953125,3.546875 7.828125,6.578125 Q 30.375,33.796875 33.5,36.8125 q 3.125,3.03125 5.046875,6.34375 1.9375,3.328125 1.9375,7.53125 0,2.921875 -0.890625,5.140625 -0.875,2.234375 -2.53125,3.734375 -1.65625,1.515625 -3.984375,2.265625 -2.3125,0.765625 -5.140625,0.765625 -2.640625,0 -4.96875,-0.734375 -2.3125,-0.71875 -4.125,-2.1875 Q 17.046875,58.203125 15.890625,56.03125 14.75,53.859375 14.40625,50.984375 L 5.421875,51.8125 q 0.4375,3.703125 2.046875,6.96875 1.609375,3.28125 4.4375,5.75 2.84375,2.46875 6.8125,3.875 3.984375,1.421875 9.21875,1.421875 5.125,0 9.125,-1.21875 4,-1.21875 6.75,-3.625 2.765625,-2.390625 4.234375,-5.90625 1.46875,-3.515625 1.46875,-8.09375 0,-3.46875 -1.25,-6.59375 -1.25,-3.125 -3.328125,-5.96875 -2.0625,-2.828125 -4.796875,-5.46875 -2.734375,-2.625 -5.71875,-5.140625 -2.96875,-2.515625 -6,-4.984375 -3.03125,-2.46875 -5.703125,-4.96875 Q 20.0625,15.375 17.96875,12.8125 15.875,10.25 14.703125,7.46875 l 35.890625,0 0,-7.46875 z"
             id="use10470"
             inkscape:connector-curvature="0"
             style="fill:#ffffff" />
          <path
             d="m 64.740234,0 0,10.6875 9.53125,0 0,-10.6875 z"
             id="use10472"
             inkscape:connector-curvature="0"
             style="fill:#ffffff" />
          <path
             d="m 134.82031,22.40625 q 0,-5.171875 -1.5625,-9.46875 -1.5625,-4.296875 -4.64062,-7.40625 -3.07813,-3.09375 -7.64063,-4.8125 -4.5625,-1.703125 -10.57812,-1.703125 -5.42188,0 -9.45313,1.265625 -4.015623,1.28125 -6.812498,3.5 Q 91.351562,6 89.710937,8.984375 q -1.625,2.984375 -2.3125,6.390625 l 8.890625,1.03125 q 0.53125,-1.953125 1.5,-3.78125 0.984375,-1.828125 2.671878,-3.28125 1.6875,-1.4375 4.15625,-2.296875 2.46875,-0.84375 5.98437,-0.84375 3.40625,0 6.1875,1.046875 2.79688,1.046875 4.76563,3.09375 1.98437,2.0625 3.04687,5.03125 1.07813,2.984375 1.07813,6.84375 0,3.171875 -1.03125,5.828125 -1.01563,2.671875 -2.92188,4.59375 -1.90625,1.9375 -4.67187,3 -2.75,1.078125 -6.26563,1.078125 -2.1875,0 -4.04687,-0.390625 -1.85938,-0.390625 -3.45313,-1.078125 -1.57812,-0.671875 -2.875,-1.578125 -1.296873,-0.90625 -2.421873,-1.890625 l -8.59375,0 2.296875,37.015625 39.109378,0 0,-7.46875 -31.093753,0 L 98.382812,39.5 q 2.343748,1.8125 5.859378,3.09375 3.51562,1.296875 8.35937,1.296875 5.125,0 9.21875,-1.5625 4.10938,-1.5625 6.98438,-4.421875 2.89062,-2.84375 4.45312,-6.796875 1.5625,-3.953125 1.5625,-8.703125"
             id="use10474"
             inkscape:connector-curvature="0"
             style="fill:#ffffff" />
        </g>
      </g>
      <g
         transform="translate(301.08104,-6.4970521)"
         id="use41521"
         style="stroke:none;fill:#ffffff">
        <!-- 3.0 -->
        <defs
           id="defs10360">
          <path
             d="m 51.21875,19 q 0,-4.734375 -1.546875,-8.453125 Q 48.140625,6.84375 45.1875,4.265625 42.234375,1.703125 37.859375,0.359375 33.5,-0.984375 27.875,-0.984375 q -6.390625,0 -10.765625,1.59375 Q 12.75,2.203125 9.90625,4.8125 7.078125,7.421875 5.65625,10.765625 4.25,14.109375 3.8125,17.671875 L 12.890625,18.5 q 0.390625,-2.734375 1.4375,-4.984375 Q 15.375,11.28125 17.1875,9.671875 19,8.0625 21.625,7.171875 q 2.640625,-0.875 6.25,-0.875 6.640625,0 10.421875,3.265625 3.796875,3.28125 3.796875,9.71875 0,3.8125 -1.6875,6.125 -1.6875,2.328125 -4.203125,3.625 -2.515625,1.296875 -5.46875,1.734375 -2.953125,0.4375 -5.4375,0.4375 l -4.984375,0 0,7.609375 4.78125,0 q 2.5,0 5.171875,0.515625 2.6875,0.515625 4.90625,1.859375 2.234375,1.34375 3.671875,3.640625 1.4375,2.296875 1.4375,5.859375 0,5.515625 -3.25,8.703125 -3.234375,3.203125 -9.640625,3.203125 -5.8125,0 -9.40625,-2.984375 Q 14.40625,56.640625 13.8125,51.21875 l -8.828125,0.6875 q 0.53125,4.546875 2.484375,7.90625 1.953125,3.375 4.953125,5.59375 3.015625,2.21875 6.859375,3.3125 3.859375,1.109375 8.203125,1.109375 5.765625,0 9.90625,-1.453125 4.15625,-1.4375 6.796875,-3.90625 2.640625,-2.453125 3.875,-5.78125 1.25,-3.3125 1.25,-7.078125 0,-3.03125 -0.828125,-5.671875 -0.828125,-2.625 -2.59375,-4.734375 -1.75,-2.09375 -4.46875,-3.609375 -2.703125,-1.515625 -6.515625,-2.296875 l 0,-0.1875 q 4.15625,-0.4375 7.234375,-1.890625 3.078125,-1.4375 5.078125,-3.59375 2,-2.140625 3,-4.875 1,-2.734375 1,-5.75"
             id="path10362"
             inkscape:connector-curvature="0" />
        </defs>
        <g
           style="fill:#ffffff"
           transform="matrix(0.1,0,0,-0.1,292.10216,253.9196)"
           id="g10364">
          <path
             d="m 51.21875,19 q 0,-4.734375 -1.546875,-8.453125 Q 48.140625,6.84375 45.1875,4.265625 42.234375,1.703125 37.859375,0.359375 33.5,-0.984375 27.875,-0.984375 q -6.390625,0 -10.765625,1.59375 Q 12.75,2.203125 9.90625,4.8125 7.078125,7.421875 5.65625,10.765625 4.25,14.109375 3.8125,17.671875 L 12.890625,18.5 q 0.390625,-2.734375 1.4375,-4.984375 Q 15.375,11.28125 17.1875,9.671875 19,8.0625 21.625,7.171875 q 2.640625,-0.875 6.25,-0.875 6.640625,0 10.421875,3.265625 3.796875,3.28125 3.796875,9.71875 0,3.8125 -1.6875,6.125 -1.6875,2.328125 -4.203125,3.625 -2.515625,1.296875 -5.46875,1.734375 -2.953125,0.4375 -5.4375,0.4375 l -4.984375,0 0,7.609375 4.78125,0 q 2.5,0 5.171875,0.515625 2.6875,0.515625 4.90625,1.859375 2.234375,1.34375 3.671875,3.640625 1.4375,2.296875 1.4375,5.859375 0,5.515625 -3.25,8.703125 -3.234375,3.203125 -9.640625,3.203125 -5.8125,0 -9.40625,-2.984375 Q 14.40625,56.640625 13.8125,51.21875 l -8.828125,0.6875 q 0.53125,4.546875 2.484375,7.90625 1.953125,3.375 4.953125,5.59375 3.015625,2.21875 6.859375,3.3125 3.859375,1.109375 8.203125,1.109375 5.765625,0 9.90625,-1.453125 4.15625,-1.4375 6.796875,-3.90625 2.640625,-2.453125 3.875,-5.78125 1.25,-3.3125 1.25,-7.078125 0,-3.03125 -0.828125,-5.671875 -0.828125,-2.625 -2.59375,-4.734375 -1.75,-2.09375 -4.46875,-3.609375 -2.703125,-1.515625 -6.515625,-2.296875 l 0,-0.1875 q 4.15625,-0.4375 7.234375,-1.890625 3.078125,-1.4375 5.078125,-3.59375 2,-2.140625 3,-4.875 1,-2.734375 1,-5.75"
             id="use10366"
             inkscape:connector-curvature="0"
             style="fill:#ffffff" />
          <path
             d="m 64.740234,0 0,10.6875 9.53125,0 0,-10.6875 z"
             id="use10368"
             inkscape:connector-curvature="0"
             style="fill:#ffffff" />
          <path
             d="m 135.10156,34.421875 q 0,-9.90625 -1.875,-16.671875 -1.875,-6.765625 -5.125,-10.9375 -3.25,-4.171875 -7.64062,-5.984375 -4.39063,-1.8125 -9.375,-1.8125 -5.03125,0 -9.375,1.8125 -4.343753,1.8125 -7.546878,5.953125 -3.203125,4.15625 -5.03125,10.921875 -1.828125,6.765625 -1.828125,16.71875 0,10.40625 1.828125,17.21875 1.828125,6.8125 5.046875,10.859375 3.234375,4.046875 7.625003,5.6875 4.39062,1.640625 9.57812,1.640625 4.92188,0 9.23438,-1.640625 4.32812,-1.640625 7.54687,-5.6875 3.23438,-4.046875 5.07813,-10.859375 1.85937,-6.8125 1.85937,-17.21875 m -8.92187,0 q 0,8.203125 -0.98438,13.640625 -0.96875,5.453125 -2.875,8.703125 -1.90625,3.25 -4.67187,4.59375 -2.75,1.34375 -6.26563,1.34375 -3.71875,0 -6.54687,-1.375 -2.82813,-1.359375 -4.76563,-4.609375 -1.921873,-3.25 -2.906248,-8.703125 -0.96875,-5.4375 -0.96875,-13.59375 0,-7.90625 1,-13.328125 1,-5.421875 2.921878,-8.71875 1.9375,-3.296875 4.71875,-4.734375 2.78125,-1.4375 6.34375,-1.4375 3.46875,0 6.25,1.4375 2.78125,1.4375 4.70312,4.734375 1.9375,3.296875 2.98438,8.71875 1.0625,5.421875 1.0625,13.328125"
             id="use10370"
             inkscape:connector-curvature="0"
             style="fill:#ffffff" />
        </g>
      </g>
      <g
         style="fill:#ffffff;stroke-linecap:butt;stroke-linejoin:round;stroke-miterlimit:100000"
         transform="matrix(0.11,0,0,-0.11,473.74196,262.46911)"
         id="use41523">
        <use
           xlink:href="#LiberationSans-6c"
           id="use10322"
           style="stroke-linecap:butt;stroke-linejoin:round;stroke-miterlimit:100000;fill:#ffffff"
           x="0"
           y="0"
           width="720"
           height="504" />
        <use
           x="22.216797"
           xlink:href="#LiberationSans-6f"
           id="use10324"
           style="stroke-linecap:butt;stroke-linejoin:round;stroke-miterlimit:100000;fill:#ffffff"
           y="0"
           width="720"
           height="504" />
        <use
           x="77.832031"
           xlink:href="#LiberationSans-67"
           id="use10326"
           style="stroke-linecap:butt;stroke-linejoin:round;stroke-miterlimit:100000;fill:#ffffff"
           y="0"
           width="720"
           height="504" />
        <path
           d="m 141.07227,0 0,7.46875 17.51562,0 0,52.9375 -15.51562,-11.09375 0,8.3125 16.25,11.171875 8.10937,0 0,-61.328125 16.75,0 0,-7.46875 z"
           id="use10328"
           inkscape:connector-curvature="0"
           style="stroke-linecap:butt;stroke-linejoin:round;stroke-miterlimit:100000;fill:#ffffff" />
        <path
           d="m 240.76562,34.421875 q 0,-9.90625 -1.875,-16.671875 -1.875,-6.765625 -5.125,-10.9375 -3.25,-4.171875 -7.64062,-5.984375 -4.39063,-1.8125 -9.375,-1.8125 -5.03125,0 -9.375,1.8125 -4.34375,1.8125 -7.54688,5.953125 -3.20312,4.15625 -5.03125,10.921875 -1.82812,6.765625 -1.82812,16.71875 0,10.40625 1.82812,17.21875 1.82813,6.8125 5.04688,10.859375 3.23437,4.046875 7.625,5.6875 4.39062,1.640625 9.57812,1.640625 4.92188,0 9.23438,-1.640625 4.32812,-1.640625 7.54687,-5.6875 3.23438,-4.046875 5.07813,-10.859375 1.85937,-6.8125 1.85937,-17.21875 m -8.92187,0 q 0,8.203125 -0.98438,13.640625 -0.96875,5.453125 -2.875,8.703125 -1.90625,3.25 -4.67187,4.59375 -2.75,1.34375 -6.26563,1.34375 -3.71875,0 -6.54687,-1.375 -2.82813,-1.359375 -4.76563,-4.609375 -1.92187,-3.25 -2.90625,-8.703125 -0.96875,-5.4375 -0.96875,-13.59375 0,-7.90625 1,-13.328125 1,-5.421875 2.92188,-8.71875 1.9375,-3.296875 4.71875,-4.734375 2.78125,-1.4375 6.34375,-1.4375 3.46875,0 6.25,1.4375 2.78125,1.4375 4.70312,4.734375 1.9375,3.296875 2.98438,8.71875 1.0625,5.421875 1.0625,13.328125"
           id="use10330"
           inkscape:connector-curvature="0"
           style="stroke-linecap:butt;stroke-linejoin:round;stroke-miterlimit:100000;fill:#ffffff" />
        <use
           x="244.67773"
           xlink:href="#LiberationSans-28"
           id="use10332"
           style="stroke-linecap:butt;stroke-linejoin:round;stroke-miterlimit:100000;fill:#ffffff"
           y="0"
           width="720"
           height="504" />
        <use
           x="277.97852"
           xlink:href="#LiberationSans-61"
           id="use10334"
           style="stroke-linecap:butt;stroke-linejoin:round;stroke-miterlimit:100000;fill:#ffffff"
           y="0"
           width="720"
           height="504" />
        <use
           x="333.59375"
           xlink:href="#LiberationSans-72"
           id="use10336"
           style="stroke-linecap:butt;stroke-linejoin:round;stroke-miterlimit:100000;fill:#ffffff"
           y="0"
           width="720"
           height="504" />
        <use
           x="366.89453"
           xlink:href="#LiberationSans-65"
           id="use10338"
           style="stroke-linecap:butt;stroke-linejoin:round;stroke-miterlimit:100000;fill:#ffffff"
           y="0"
           width="720"
           height="504" />
        <use
           x="422.50977"
           xlink:href="#LiberationSans-61"
           id="use10340"
           style="stroke-linecap:butt;stroke-linejoin:round;stroke-miterlimit:100000;fill:#ffffff"
           y="0"
           width="720"
           height="504" />
        <use
           x="478.125"
           xlink:href="#LiberationSans-29"
           id="use10342"
           style="stroke-linecap:butt;stroke-linejoin:round;stroke-miterlimit:100000;fill:#ffffff"
           y="0"
           width="720"
           height="504" />
        <use
           x="511.42578"
           xlink:href="#LiberationSans-20"
           id="use10344"
           style="stroke-linecap:butt;stroke-linejoin:round;stroke-miterlimit:100000;fill:#ffffff"
           y="0"
           width="720"
           height="504" />
        <use
           x="539.20898"
           xlink:href="#LiberationSans-2f"
           id="use10346"
           style="stroke-linecap:butt;stroke-linejoin:round;stroke-miterlimit:100000;fill:#ffffff"
           y="0"
           width="720"
           height="504" />
        <use
           x="566.99219"
           xlink:href="#LiberationSans-20"
           id="use10348"
           style="stroke-linecap:butt;stroke-linejoin:round;stroke-miterlimit:100000;fill:#ffffff"
           y="0"
           width="720"
           height="504" />
        <use
           x="594.77539"
           xlink:href="#LiberationSans-70"
           id="use10350"
           style="stroke-linecap:butt;stroke-linejoin:round;stroke-miterlimit:100000;fill:#ffffff"
           y="0"
           width="720"
           height="504" />
        <use
           x="650.39062"
           xlink:href="#LiberationSans-78"
           id="use10352"
           style="stroke-linecap:butt;stroke-linejoin:round;stroke-miterlimit:100000;fill:#ffffff"
           y="0"
           width="720"
           height="504" />
        <use
           x="700.39062"
           xlink:href="#LiberationSans-5e"
           id="use10354"
           style="stroke-linecap:butt;stroke-linejoin:round;stroke-miterlimit:100000;fill:#ffffff"
           y="0"
           width="720"
           height="504" />
        <path
           d="m 752.3457,0 0,6.203125 q 2.48438,5.71875 6.07813,10.078125 3.59375,4.375 7.54687,7.90625 3.95313,3.546875 7.82813,6.578125 3.89062,3.03125 7.01562,6.046875 3.125,3.03125 5.04688,6.34375 1.9375,3.328125 1.9375,7.53125 0,2.921875 -0.89063,5.140625 -0.875,2.234375 -2.53125,3.734375 -1.65625,1.515625 -3.98437,2.265625 -2.3125,0.765625 -5.14063,0.765625 -2.64062,0 -4.96875,-0.734375 -2.3125,-0.71875 -4.125,-2.1875 -1.79687,-1.46875 -2.95312,-3.640625 -1.14063,-2.171875 -1.48438,-5.046875 l -8.98437,0.828125 q 0.4375,3.703125 2.04687,6.96875 1.60938,3.28125 4.4375,5.75 2.84375,2.46875 6.8125,3.875 3.98438,1.421875 9.21875,1.421875 5.125,0 9.125,-1.21875 4,-1.21875 6.75,-3.625 2.76563,-2.390625 4.23438,-5.90625 1.46875,-3.515625 1.46875,-8.09375 0,-3.46875 -1.25,-6.59375 -1.25,-3.125 -3.32813,-5.96875 -2.0625,-2.828125 -4.79687,-5.46875 -2.73438,-2.625 -5.71875,-5.140625 -2.96875,-2.515625 -6,-4.984375 -3.03125,-2.46875 -5.70313,-4.96875 -2.65625,-2.484375 -4.75,-5.046875 -2.09375,-2.5625 -3.26562,-5.34375 l 35.89062,0 0,-7.46875 z"
           id="use10356"
           inkscape:connector-curvature="0"
           style="stroke-linecap:butt;stroke-linejoin:round;stroke-miterlimit:100000;fill:#ffffff" />
      </g>
    </g>
  </g>
  <g
     inkscape:groupmode="layer"
     id="layer3"
     inkscape:label="Label"
     style="stroke-linecap:butt;stroke-linejoin:round;stroke-miterlimit:100000;display:inline"
     transform="translate(-309.61129,-0.760587)">
    <text
       xml:space="preserve"
       style="font-size:12.80000019px;font-style:normal;font-variant:normal;font-weight:normal;font-stretch:normal;text-align:center;line-height:125%;letter-spacing:0px;word-spacing:0px;text-anchor:middle;fill:#cc0000;fill-opacity:1;stroke:none;display:inline;font-family:Arial;-inkscape-font-specification:Arial"
       x="430.30203"
       y="32.837757"
       id="text7477"
       sodipodi:linespacing="125%"><tspan
         sodipodi:role="line"
         id="tspan7479"
         x="430.30203"
         y="32.837757">Fragments</tspan></text>
    <text
       xml:space="preserve"
       style="font-size:12.80000019px;font-style:normal;font-variant:normal;font-weight:normal;font-stretch:normal;text-align:center;line-height:125%;letter-spacing:0px;word-spacing:0px;text-anchor:middle;fill:#729fcf;fill-opacity:1;stroke:none;display:inline;font-family:Arial;-inkscape-font-specification:Arial"
       x="545.87347"
       y="23.609606"
       id="text7481"
       sodipodi:linespacing="125%"><tspan
         sodipodi:role="line"
         id="tspan7483"
         x="545.87347"
         y="23.609606">Four-daughter</tspan></text>
    <text
       xml:space="preserve"
       style="font-size:12.80000019px;font-style:normal;font-variant:normal;font-weight:normal;font-stretch:normal;text-align:center;line-height:125%;letter-spacing:0px;word-spacing:0px;text-anchor:middle;fill:#8ae234;fill-opacity:1;stroke:none;display:inline;font-family:Arial;-inkscape-font-specification:Arial"
       x="556.85938"
       y="172.13866"
       id="text7485"
       sodipodi:linespacing="125%"><tspan
         sodipodi:role="line"
         id="tspan7487"
         x="556.85938"
         y="172.13866">Two-daughter</tspan></text>
    <text
       xml:space="preserve"
       style="font-size:11.19999981px;font-style:normal;font-variant:normal;font-weight:normal;font-stretch:normal;text-align:center;line-height:125%;letter-spacing:0px;word-spacing:0px;text-anchor:middle;fill:#000000;fill-opacity:1;stroke:none;display:inline;font-family:Arial;-inkscape-font-specification:Arial"
       x="-93.183281"
       y="317.7652"
       id="text26456"
       sodipodi:linespacing="125%"
       transform="matrix(0,-1,1,0,0,0)"><tspan
         sodipodi:role="line"
         id="tspan26458"
         x="-93.183281"
         y="317.7652">PCA-C0</tspan></text>
  </g>
</svg>
